<svg xmlns="http://www.w3.org/2000/svg" width="871.724" height="871.727" viewBox="0 0 871.724 871.727">
  <g id="location_4_" data-name="location(4)" transform="translate(-0.001 0)" opacity="0.122">
    <g id="Gruppe_37" data-name="Gruppe 37" transform="translate(559.54 150.127)">
      <g id="Gruppe_36" data-name="Gruppe 36">
        <path id="Pfad_137" data-name="Pfad 137" d="M396.026,88.176a67.383,67.383,0,1,0,67.383,67.383A67.461,67.461,0,0,0,396.026,88.176Zm0,109.176a41.795,41.795,0,1,1,41.795-41.795A41.842,41.842,0,0,1,396.026,197.352Z" transform="translate(-328.643 -88.176)" fill="#edf0fa"/>
      </g>
    </g>
    <g id="Gruppe_39" data-name="Gruppe 39" transform="translate(300.242 614.131)">
      <g id="Gruppe_38" data-name="Gruppe 38">
        <path id="Pfad_138" data-name="Pfad 138" d="M257.377,360.706a81.125,81.125,0,0,0-81.031,81.031c0,55.834,69.043,125.519,71.982,128.46a12.8,12.8,0,0,0,18.1,0c2.937-2.937,71.982-72.625,71.982-128.46A81.118,81.118,0,0,0,257.377,360.706Zm0,181.788c-21.054-23.433-55.441-68.485-55.441-100.759a55.441,55.441,0,0,1,110.882,0C312.82,474.011,278.429,519.066,257.377,542.494Z" transform="translate(-176.346 -360.706)" fill="#edf0fa"/>
      </g>
    </g>
    <g id="Gruppe_41" data-name="Gruppe 41" transform="translate(342.89 656.778)">
      <g id="Gruppe_40" data-name="Gruppe 40">
        <path id="Pfad_139" data-name="Pfad 139" d="M239.778,385.754a38.383,38.383,0,1,0,38.383,38.383A38.427,38.427,0,0,0,239.778,385.754Zm0,51.178a12.795,12.795,0,1,1,12.795-12.795A12.809,12.809,0,0,1,239.778,436.932Z" transform="translate(-201.395 -385.754)" fill="#edf0fa"/>
      </g>
    </g>
    <g id="Gruppe_43" data-name="Gruppe 43" transform="translate(217.243 0.002)">
      <g id="Gruppe_42" data-name="Gruppe 42">
        <path id="Pfad_140" data-name="Pfad 140" d="M460.21.972A12.793,12.793,0,0,0,443.5,7.918L381.428,158.344,153.187,97.979V12.8a12.795,12.795,0,0,0-25.59,0v95.031A12.792,12.792,0,0,0,137.12,120.2l248.589,65.749a12.794,12.794,0,0,0,15.1-7.49l66.346-160.78A12.8,12.8,0,0,0,460.21.972Z" transform="translate(-127.597 -0.001)" fill="#edf0fa"/>
      </g>
    </g>
    <g id="Gruppe_45" data-name="Gruppe 45" transform="translate(0.001 469.908)">
      <g id="Gruppe_44" data-name="Gruppe 44">
        <path id="Pfad_141" data-name="Pfad 141" d="M165.074,315.837l-149-39.411a12.794,12.794,0,1,0-6.545,24.737l139.481,36.892V427.9a12.795,12.795,0,0,0,25.59,0V328.2A12.794,12.794,0,0,0,165.074,315.837Z" transform="translate(-0.001 -275.997)" fill="#edf0fa"/>
      </g>
    </g>
    <g id="Gruppe_47" data-name="Gruppe 47" transform="translate(0.001 0.007)">
      <g id="Gruppe_46" data-name="Gruppe 46">
        <path id="Pfad_142" data-name="Pfad 142" d="M161.8,0A12.8,12.8,0,0,0,149.007,12.8V73.162L16.071,38A12.794,12.794,0,1,0,9.527,62.739l149,39.41A12.795,12.795,0,0,0,174.6,89.779V12.8A12.8,12.8,0,0,0,161.8,0Z" transform="translate(-0.001 -0.004)" fill="#edf0fa"/>
      </g>
    </g>
    <g id="Gruppe_49" data-name="Gruppe 49" transform="translate(149.007 670.425)">
      <g id="Gruppe_48" data-name="Gruppe 48">
        <path id="Pfad_143" data-name="Pfad 143" d="M100.314,393.77a12.8,12.8,0,0,0-12.795,12.795V582.273a12.795,12.795,0,0,0,25.59,0V406.565A12.8,12.8,0,0,0,100.314,393.77Z" transform="translate(-87.519 -393.77)" fill="#edf0fa"/>
      </g>
    </g>
    <g id="Gruppe_51" data-name="Gruppe 51" transform="translate(0.001 108.159)">
      <g id="Gruppe_50" data-name="Gruppe 50">
        <path id="Pfad_144" data-name="Pfad 144" d="M165.074,103.365l-149-39.41A12.794,12.794,0,1,0,9.527,88.692l139.482,36.893v264.7L16.071,355.124A12.794,12.794,0,1,0,9.527,379.86l149,39.41A12.795,12.795,0,0,0,174.6,406.9V115.732A12.794,12.794,0,0,0,165.074,103.365Z" transform="translate(-0.001 -63.526)" fill="#edf0fa"/>
      </g>
    </g>
    <g id="Gruppe_53" data-name="Gruppe 53" transform="translate(191.064 0)">
      <g id="Gruppe_52" data-name="Gruppe 52">
        <path id="Pfad_145" data-name="Pfad 145" d="M784.964,116.589a12.789,12.789,0,0,0-16.707,6.947L718.3,244.59,669.13,231.583a113.734,113.734,0,0,0,.923-14.077A121.985,121.985,0,0,0,518.1,99.273l33.67-81.595a12.794,12.794,0,1,0-23.652-9.761L484.591,113.4a122.012,122.012,0,0,0-58.482,104.1,119.423,119.423,0,0,0,1.946,20.9L154.467,166.046A12.8,12.8,0,0,0,138.4,178.417v64.816a80.822,80.822,0,0,0-26.179,59.575c0,23.261,11.984,48.922,26.179,71.161v95.614a12.792,12.792,0,0,0,9.523,12.367l440.071,116.4a12.794,12.794,0,0,0,15.1-7.49L711.422,328.341a12.794,12.794,0,0,0-8.554-17.249l-55.577-14.7a241.781,241.781,0,0,0,16.4-39.776l58.9,15.577a12.794,12.794,0,0,0,15.1-7.49L791.913,133.3A12.8,12.8,0,0,0,784.964,116.589ZM548.08,121.125a96.492,96.492,0,0,1,96.383,96.383c0,62.279-70.827,144.745-96.383,172.473C522.524,362.255,451.7,279.787,451.7,217.508A96.493,96.493,0,0,1,548.08,121.125ZM137.811,302.8a55.441,55.441,0,1,1,110.882,0c0,32.276-34.389,77.33-55.441,100.759C172.2,380.13,137.811,335.078,137.811,302.8ZM682.192,332.09,583.713,570.744,163.99,459.731v-50.97c10.781,12.992,19.229,21.517,20.216,22.5a12.8,12.8,0,0,0,18.095,0c2.939-2.939,71.982-72.625,71.982-128.46a80.982,80.982,0,0,0-110.293-75.54V195.031L435.907,266.95c26.761,73.637,99.369,146.909,103.124,150.665a12.8,12.8,0,0,0,18.1,0c2.845-2.845,45.212-45.6,77.221-98.179Z" transform="translate(-112.221 0)" fill="#edf0fa"/>
      </g>
    </g>
    <g id="Gruppe_55" data-name="Gruppe 55" transform="translate(618.497 654.421)">
      <g id="Gruppe_54" data-name="Gruppe 54">
        <path id="Pfad_146" data-name="Pfad 146" d="M606.972,424.079,458.45,384.8a12.792,12.792,0,0,0-15.1,7.49L364.241,584a12.794,12.794,0,1,0,23.654,9.761L462.734,412.4l137.694,36.42a12.8,12.8,0,1,0,6.543-24.74Z" transform="translate(-363.271 -384.37)" fill="#edf0fa"/>
      </g>
    </g>
    <g id="Gruppe_57" data-name="Gruppe 57" transform="translate(723.868 328.264)">
      <g id="Gruppe_56" data-name="Gruppe 56">
        <path id="Pfad_147" data-name="Pfad 147" d="M563.49,488.086l-108.133-28.6,102.753-249a12.794,12.794,0,1,0-23.652-9.761L426.127,463.237a12.794,12.794,0,0,0,8.554,17.249l122.262,32.337a12.794,12.794,0,0,0,6.547-24.737Z" transform="translate(-425.16 -192.804)" fill="#edf0fa"/>
      </g>
    </g>
    <g id="Gruppe_59" data-name="Gruppe 59" transform="translate(217.243 527.371)">
      <g id="Gruppe_58" data-name="Gruppe 58">
        <path id="Pfad_148" data-name="Pfad 148" d="M565.666,426.307a12.8,12.8,0,0,0-8.189-6.684L143.664,310.172A12.8,12.8,0,0,0,127.6,322.543V641.305a12.795,12.795,0,0,0,25.59,0V339.158L536.8,440.622,456,636.424a12.794,12.794,0,1,0,23.654,9.761l86.375-209.314A12.807,12.807,0,0,0,565.666,426.307Z" transform="translate(-127.597 -309.748)" fill="#edf0fa"/>
      </g>
    </g>
    <g id="Gruppe_61" data-name="Gruppe 61" transform="translate(233.712 264.421)">
      <g id="Gruppe_60" data-name="Gruppe 60">
        <path id="Pfad_149" data-name="Pfad 149" d="M175.653,155.306a38.383,38.383,0,1,0,38.383,38.383A38.427,38.427,0,0,0,175.653,155.306Zm0,51.178a12.795,12.795,0,1,1,12.795-12.795A12.809,12.809,0,0,1,175.653,206.484Z" transform="translate(-137.27 -155.306)" fill="#edf0fa"/>
      </g>
    </g>
  </g>
</svg>
