<svg xmlns="http://www.w3.org/2000/svg" width="135.76" height="33.373" viewBox="0 0 135.76 33.373">
  <g id="Gruppe_71" data-name="Gruppe 71" transform="translate(-35 -23.628)">
    <path id="Pfad_124" data-name="Pfad 124" d="M90.178,12.117a10.6,10.6,0,0,0-9.483-6.083,10.4,10.4,0,0,0-9.554,5.9,10.84,10.84,0,0,0,1.181,11.621l6.79,8.624a1.813,1.813,0,0,0,2.845,0l6.969-8.857a10.63,10.63,0,0,0,1.252-11.2Zm-2.648,10.1-7,8.857-6.79-8.624a9.082,9.082,0,0,1-.984-9.716,8.55,8.55,0,0,1,7.792-4.9h.134A8.719,8.719,0,0,1,88.568,12.9a8.728,8.728,0,0,1-1.038,9.322" transform="translate(35 23.628)" fill="#fff"/>
    <path id="Pfad_125" data-name="Pfad 125" d="M90.178,12.117a10.6,10.6,0,0,0-9.483-6.083,10.4,10.4,0,0,0-9.554,5.9,10.84,10.84,0,0,0,1.181,11.621l6.79,8.624a1.813,1.813,0,0,0,2.845,0l6.969-8.857a10.63,10.63,0,0,0,1.252-11.2Zm-2.648,10.1-7,8.857-6.79-8.624a9.082,9.082,0,0,1-.984-9.716,8.55,8.55,0,0,1,7.792-4.9h.134A8.719,8.719,0,0,1,88.568,12.9,8.728,8.728,0,0,1,87.53,22.217Z" transform="translate(35 23.628)" fill="#34499a" stroke="#34499a" stroke-miterlimit="10" stroke-width="0.5"/>
    <path id="Pfad_126" data-name="Pfad 126" d="M80.534,11.545a4.884,4.884,0,1,0,4.885,4.885,4.891,4.891,0,0,0-4.885-4.885m0,7.971a3.1,3.1,0,1,1,3.1-3.1,3.1,3.1,0,0,1-3.1,3.1" transform="translate(35 23.628)" fill="#fff"/>
    <path id="Pfad_127" data-name="Pfad 127" d="M80.534,11.545a4.884,4.884,0,1,0,4.885,4.885A4.891,4.891,0,0,0,80.534,11.545Zm0,7.971a3.1,3.1,0,1,1,3.1-3.1A3.1,3.1,0,0,1,80.534,19.516Z" transform="translate(35 23.628)" fill="#34499a" stroke="#34499a" stroke-miterlimit="10" stroke-width="1"/>
    <path id="Pfad_128" data-name="Pfad 128" d="M5.169,20.936H16.145v4.152H0V0H5.169Z" transform="translate(35 23.628)" fill="#34499a"/>
    <path id="Pfad_129" data-name="Pfad 129" d="M27.362,25.432a9.152,9.152,0,0,1-6.676-2.515,8.943,8.943,0,0,1-2.577-6.7v-.483a11.253,11.253,0,0,1,1.086-5.022A7.962,7.962,0,0,1,22.271,7.3a8.634,8.634,0,0,1,4.54-1.2,7.737,7.737,0,0,1,6.022,2.412q2.2,2.414,2.2,6.841v2.033H23.158a4.622,4.622,0,0,0,1.456,2.929,4.4,4.4,0,0,0,3.076,1.1,5.378,5.378,0,0,0,4.5-2.085l2.447,2.739A7.467,7.467,0,0,1,31.6,24.545a9.958,9.958,0,0,1-4.239.887m-.568-15.318a3.112,3.112,0,0,0-2.4,1,5.192,5.192,0,0,0-1.18,2.873h6.927v-.4a3.718,3.718,0,0,0-.9-2.571,3.214,3.214,0,0,0-2.447-.908" transform="translate(35 23.628)" fill="#34499a"/>
    <path id="Pfad_130" data-name="Pfad 130" d="M48.333,11.113a13.516,13.516,0,0,0-1.792-.138q-2.826,0-3.705,1.913v12.2h-4.98V6.444h4.705L42.7,8.667A4.615,4.615,0,0,1,46.851,6.1a5.235,5.235,0,0,1,1.551.224Z" transform="translate(35 23.628)" fill="#34499a"/>
    <path id="Pfad_131" data-name="Pfad 131" d="M55.312,6.444,55.466,8.6a6.512,6.512,0,0,1,5.36-2.5A5.41,5.41,0,0,1,65.237,7.84a8.117,8.117,0,0,1,1.481,5.2V25.088H61.739V13.164a3.235,3.235,0,0,0-.69-2.3,3.083,3.083,0,0,0-2.292-.715A3.427,3.427,0,0,0,55.6,11.94V25.088H50.625V6.444Z" transform="translate(35 23.628)" fill="#34499a"/>
    <path id="Pfad_132" data-name="Pfad 132" d="M104.331,11.113a13.5,13.5,0,0,0-1.792-.138q-2.826,0-3.7,1.913v12.2h-4.98V6.444h4.7L98.7,8.667A4.613,4.613,0,0,1,102.85,6.1a5.223,5.223,0,0,1,1.55.224Z" transform="translate(35 23.628)" fill="#34499a"/>
    <path id="Pfad_133" data-name="Pfad 133" d="M113.55,1.86V6.444h3.188V10.1H113.55v9.3a2.223,2.223,0,0,0,.4,1.482,1.987,1.987,0,0,0,1.516.448,7.98,7.98,0,0,0,1.465-.12v3.773a10.242,10.242,0,0,1-3.016.448q-5.238,0-5.341-5.29V10.1h-2.723V6.444h2.723V1.86Z" transform="translate(35 23.628)" fill="#34499a"/>
    <path id="Pfad_134" data-name="Pfad 134" d="M128.092,25.432a9.156,9.156,0,0,1-6.677-2.515,8.946,8.946,0,0,1-2.577-6.7v-.483a11.266,11.266,0,0,1,1.086-5.022A7.957,7.957,0,0,1,123,7.3a8.631,8.631,0,0,1,4.54-1.2,7.74,7.74,0,0,1,6.022,2.412q2.2,2.414,2.2,6.841v2.033H123.887a4.626,4.626,0,0,0,1.456,2.929,4.4,4.4,0,0,0,3.076,1.1,5.381,5.381,0,0,0,4.5-2.085l2.447,2.739a7.474,7.474,0,0,1-3.033,2.473,9.961,9.961,0,0,1-4.239.887m-.569-15.318a3.11,3.11,0,0,0-2.4,1,5.192,5.192,0,0,0-1.181,2.873h6.927v-.4a3.713,3.713,0,0,0-.9-2.571,3.214,3.214,0,0,0-2.447-.908" transform="translate(35 23.628)" fill="#34499a"/>
    <rect id="Rechteck_202" data-name="Rechteck 202" width="135.76" height="33.372" transform="translate(35 23.628)" fill="none"/>
  </g>
</svg>
