<?xml version="1.0" encoding="UTF-8"?>
<svg id="Ebene_1" data-name="Ebene 1" xmlns="http://www.w3.org/2000/svg" viewBox="0 0 38.76 44.53">
  <defs>
    <style>
      .cls-1 {
        fill: #34499a;
      }

      .cls-2 {
        fill: #fff;
      }
    </style>
  </defs>
  <g id="Gruppe_24" data-name="Gruppe 24">
    <path id="Pfad_117" data-name="Pfad 117" class="cls-1" d="M17.1,37.37c.29.43.86.54,1.29.26.1-.07.19-.16.26-.26,2.21-3.31,5.46-7.4,7.72-11.56,1.81-3.32,2.69-6.16,2.69-8.67,0-6.18-5.01-11.19-11.19-11.19-6.18,0-11.19,5.01-11.19,11.19h0c0,2.51.88,5.34,2.69,8.67,2.26,4.15,5.52,8.25,7.72,11.56"/>
    <path id="Pfad_118" data-name="Pfad 118" class="cls-2" d="M17.88,25.3c4.44,0,8.03-3.6,8.03-8.03,0-4.44-3.6-8.03-8.03-8.03s-8.03,3.6-8.03,8.03h0c0,4.44,3.6,8.03,8.03,8.04"/>
  </g>
  <path class="cls-1" d="M21.67,13.67l-5.54,5.54-2.54-2.54c-.38-.38-1-.38-1.38,0-.38.38-.38,1,0,1.38l3.23,3.23c.18.18.43.29.69.29h0c.26,0,.51-.1.69-.29l6.23-6.23c.38-.38.38-1,0-1.38-.38-.38-1-.38-1.38,0Z"/>
</svg>