<?xml version="1.0" encoding="UTF-8"?>
<svg id="Ebene_1" data-name="Ebene 1" xmlns="http://www.w3.org/2000/svg" viewBox="0 0 38.76 44.53">
  <defs>
    <style>
      .cls-1 {
        fill: #34499a;
      }

      .cls-2 {
        fill: #fff;
      }

      .cls-3 {
        fill: none;
        stroke: #34499a;
        stroke-miterlimit: 10;
        stroke-width: 2px;
      }
    </style>
  </defs>
  <path id="Pfad_117" data-name="Pfad 117" class="cls-3" d="M15,37.37c.29.43.86.54,1.29.26.1-.07.19-.16.26-.26,2.21-3.31,5.46-7.4,7.72-11.56,1.81-3.32,2.69-6.16,2.69-8.67,0-6.18-5.01-11.19-11.19-11.19-6.18,0-11.19,5.01-11.19,11.19h0c0,2.51.88,5.34,2.69,8.67,2.26,4.15,5.52,8.25,7.72,11.56"/>
  <path id="Pfad_118" data-name="Pfad 118" class="cls-1" d="M15.78,25.3c4.44,0,8.03-3.6,8.03-8.03,0-4.44-3.6-8.03-8.03-8.03s-8.03,3.6-8.03,8.03h0c0,4.44,3.6,8.03,8.03,8.04"/>
  <path class="cls-2" d="M19.57,13.87l-5.2,5.2-2.38-2.39c-.36-.36-.94-.36-1.3,0-.36.36-.36.94,0,1.3l3.04,3.04c.17.17.41.27.65.27h0c.24,0,.48-.1.65-.27l5.85-5.85c.36-.36.36-.94,0-1.3-.36-.36-.94-.36-1.3,0Z"/>
</svg>