<?xml version="1.0" encoding="UTF-8"?>
<svg id="Ebene_1" xmlns="http://www.w3.org/2000/svg" version="1.1" viewBox="0 0 38.8 44.5">
  <!-- Generator: Adobe Illustrator 29.3.1, SVG Export Plug-In . SVG Version: 2.1.0 Build 151)  -->
  <defs>
    <style>
      .st0 {
        fill: #34499a;
      }

      .st1 {
        fill: #fff;
      }

      .st2 {
        fill: none;
        stroke: #34499a;
        stroke-miterlimit: 10;
        stroke-width: 2px;
      }
    </style>
  </defs>
  <g id="Gruppe_24">
    <path id="Pfad_117" class="st0" d="M18.2,35.6c.3.4.9.5,1.3.3.1,0,.2-.2.3-.3,2.2-3.3,5.5-7.4,7.7-11.6,1.8-3.3,2.7-6.2,2.7-8.7,0-6.2-5-11.2-11.2-11.2-6.2,0-11.2,5-11.2,11.2h0c0,2.5.9,5.3,2.7,8.7,2.3,4.2,5.5,8.3,7.7,11.6M19,6.1c5.1,0,9.3,4.2,9.3,9.3,0,2.2-.8,4.7-2.5,7.8-2.1,3.5-4.4,7-6.9,10.3-2.5-3.3-4.8-6.7-6.9-10.3-1.7-3-2.5-5.6-2.5-7.8,0-5.1,4.2-9.3,9.3-9.3Z"/>
  </g>
  <path id="Pfad_1171" data-name="Pfad_117" class="st2" d="M122-20.5c.3.4.9.5,1.3.3.1,0,.2-.2.3-.3,2.2-3.3,5.5-7.4,7.7-11.6,1.8-3.3,2.7-6.2,2.7-8.7,0-6.2-5-11.2-11.2-11.2-6.2,0-11.2,5-11.2,11.2h0c0,2.5.9,5.3,2.7,8.7,2.3,4.2,5.5,8.3,7.7,11.6"/>
  <path id="Pfad_118" class="st0" d="M122.8-32.6c4.4,0,8-3.6,8-8,0-4.4-3.6-8-8-8s-8,3.6-8,8h0c0,4.4,3.6,8,8,8"/>
  <g id="Gruppe_241" data-name="Gruppe_24">
    <path id="Pfad_1172" data-name="Pfad_117" class="st0" d="M75.6-21.4c.3.4.9.5,1.3.3.1,0,.2-.2.3-.3,2.2-3.3,5.5-7.4,7.7-11.6,1.8-3.3,2.7-6.2,2.7-8.7,0-6.2-5-11.2-11.2-11.2-6.2,0-11.2,5-11.2,11.2h0c0,2.5.9,5.3,2.7,8.7,2.3,4.2,5.5,8.3,7.7,11.6"/>
    <path id="Pfad_1181" data-name="Pfad_118" class="st1" d="M76.3-33.4c4.4,0,8-3.6,8-8,0-4.4-3.6-8-8-8s-8,3.6-8,8h0c0,4.4,3.6,8,8,8"/>
  </g>
  <path class="st0" d="M80.1-45.1l-5.5,5.5-2.5-2.5c-.4-.4-1-.4-1.4,0-.4.4-.4,1,0,1.4l3.2,3.2c.2.2.4.3.7.3h0c.3,0,.5-.1.7-.3l6.2-6.2c.4-.4.4-1,0-1.4-.4-.4-1-.4-1.4,0Z"/>
  <path class="st0" d="M23.7,11.8l-6.5,6.5-3-3c-.4-.4-1.2-.4-1.6,0-.4.4-.4,1.2,0,1.6l3.8,3.8c.2.2.5.3.8.3h0c.3,0,.6-.1.8-.3l7.3-7.3c.4-.4.4-1.2,0-1.6-.4-.4-1.2-.4-1.6,0Z"/>
  <g id="Gruppe_242" data-name="Gruppe_24">
    <path id="Pfad_1173" data-name="Pfad_117" class="st0" d="M77.9,35.6c.3.4.9.5,1.3.3.1,0,.2-.2.3-.3,2.2-3.3,5.5-7.4,7.7-11.6,1.8-3.3,2.7-6.2,2.7-8.7,0-6.2-5-11.2-11.2-11.2-6.2,0-11.2,5-11.2,11.2h0c0,2.5.9,5.3,2.7,8.7,2.3,4.2,5.5,8.3,7.7,11.6"/>
  </g>
  <path class="st1" d="M83.4,12.2l-6,6-2.7-2.7c-.4-.4-1.1-.4-1.5,0-.4.4-.4,1.1,0,1.5l3.5,3.5c.2.2.5.3.7.3h0c.3,0,.5-.1.7-.3l6.7-6.7c.4-.4.4-1.1,0-1.5-.4-.4-1.1-.4-1.5,0Z"/>
  <path class="st1" d="M126.6-44l-5.2,5.2-2.4-2.4c-.4-.4-.9-.4-1.3,0-.4.4-.4.9,0,1.3l3,3c.2.2.4.3.7.3h0c.2,0,.5,0,.7-.3l5.9-5.9c.4-.4.4-.9,0-1.3-.4-.4-.9-.4-1.3,0Z"/>
</svg>