<?xml version="1.0" encoding="UTF-8"?>
<svg id="Ebene_1" data-name="Ebene 1" xmlns="http://www.w3.org/2000/svg" viewBox="0 0 38.76 44.53">
  <defs>
    <style>
      .cls-1 {
        fill: #34499a;
      }

      .cls-2 {
        fill: #fff;
      }
    </style>
  </defs>
  <g id="Gruppe_24" data-name="Gruppe 24">
    <path id="Pfad_117" data-name="Pfad 117" class="cls-1" d="M18.32,35.65c.29.43.86.54,1.29.26.1-.07.19-.16.26-.26,2.21-3.31,5.46-7.4,7.72-11.56,1.81-3.32,2.69-6.16,2.69-8.67,0-6.18-5.01-11.19-11.19-11.19-6.18,0-11.19,5.01-11.19,11.19h0c0,2.51.88,5.34,2.69,8.67,2.26,4.15,5.52,8.25,7.72,11.56"/>
  </g>
  <path class="cls-2" d="M23.8,12.2l-5.99,5.99-2.74-2.74c-.41-.41-1.08-.41-1.5,0-.41.41-.41,1.08,0,1.5l3.49,3.49c.2.2.47.31.75.31h0c.28,0,.55-.11.75-.31l6.74-6.74c.41-.41.41-1.08,0-1.5-.41-.41-1.08-.41-1.5,0Z"/>
</svg>