<?xml version="1.0" encoding="UTF-8"?>
<svg id="Ebene_1" data-name="Ebene 1" xmlns="http://www.w3.org/2000/svg" viewBox="0 0 38.76 44.53">
  <defs>
    <style>
      .cls-1 {
        fill: #34499a;
      }
    </style>
  </defs>
  <g id="Gruppe_24" data-name="Gruppe 24">
    <path id="Pfad_117" data-name="Pfad 117" class="cls-1" d="M18.23,35.65c.29.43.86.54,1.29.26.1-.07.19-.16.26-.26,2.21-3.31,5.46-7.4,7.72-11.56,1.81-3.32,2.69-6.16,2.69-8.67,0-6.18-5.01-11.19-11.19-11.19-6.18,0-11.19,5.01-11.19,11.19h0c0,2.51.88,5.34,2.69,8.67,2.26,4.15,5.52,8.25,7.72,11.56M19.01,6.1c5.15,0,9.32,4.18,9.32,9.33,0,2.19-.81,4.73-2.46,7.78-2.1,3.54-4.39,6.97-6.86,10.28-2.47-3.3-4.76-6.73-6.86-10.28-1.66-3.04-2.46-5.59-2.46-7.78,0-5.15,4.18-9.32,9.32-9.33Z"/>
  </g>
  <path class="cls-1" d="M23.72,11.79l-6.47,6.47-2.96-2.96c-.45-.45-1.17-.45-1.62,0-.45.45-.45,1.17,0,1.62l3.77,3.77c.21.21.51.33.81.33h0c.3,0,.59-.12.81-.33l7.28-7.27c.45-.45.45-1.17,0-1.62-.45-.45-1.17-.45-1.62,0Z"/>
</svg>