<?xml version="1.0" standalone="no"?>
<!DOCTYPE svg PUBLIC "-//W3C//DTD SVG 20010904//EN"
 "http://www.w3.org/TR/2001/REC-SVG-20010904/DTD/svg10.dtd">
<svg version="1.0" xmlns="http://www.w3.org/2000/svg"
 width="192.000000pt" height="192.000000pt" viewBox="0 0 192.000000 192.000000"
 preserveAspectRatio="xMidYMid meet">

<g transform="translate(0.000000,192.000000) scale(0.100000,-0.100000)"
fill="#ffffff" stroke="none">
<path d="M1120 1696 c-68 -15 -137 -48 -187 -92 -21 -19 -41 -34 -44 -34 -3 0
-32 9 -65 21 -121 42 -241 34 -369 -25 -65 -29 -161 -119 -202 -188 -47 -77
-76 -196 -68 -278 20 -196 99 -357 347 -705 16 -22 36 -51 45 -65 79 -117 104
-126 152 -53 17 27 75 111 129 188 53 77 110 161 125 187 15 26 31 49 35 52 5
3 48 -51 96 -120 59 -83 93 -124 106 -124 30 0 262 336 356 515 121 231 106
452 -42 602 -108 109 -260 153 -414 119z m215 -66 c157 -54 256 -189 256 -350
0 -66 -33 -197 -66 -260 -53 -102 -290 -460 -305 -460 -7 0 -37 40 -113 152
l-45 67 26 63 c14 35 35 98 46 141 l21 78 72 2 c63 2 78 7 115 34 26 18 54 52
71 84 24 45 28 63 25 109 -13 161 -183 255 -322 177 -60 -34 -66 -34 -96 1
-14 15 -36 35 -49 45 -24 16 -24 17 -6 37 78 86 246 123 370 80z m-572 -105
c81 -21 132 -49 192 -106 65 -62 113 -160 121 -250 12 -126 -38 -291 -132
-435 -21 -32 -53 -83 -71 -112 -49 -80 -194 -282 -202 -282 -9 0 -150 198
-211 295 -24 39 -57 90 -72 115 -84 130 -133 290 -126 404 17 249 265 433 501
371z m515 -109 c55 -29 85 -72 89 -128 7 -92 -56 -158 -149 -158 -53 0 -68 15
-68 72 -1 18 -10 58 -21 88 -11 30 -22 62 -25 71 -4 12 7 24 38 43 48 29 96
33 136 12z"/>
<path d="M601 1351 c-64 -22 -98 -47 -128 -91 -50 -73 -56 -161 -15 -241 84
-167 305 -179 415 -23 21 30 30 57 34 102 10 105 -36 191 -126 236 -67 34
-116 38 -180 17z m145 -82 c122 -59 117 -241 -9 -293 -74 -31 -143 -14 -195
49 -41 51 -49 101 -24 157 43 97 135 132 228 87z"/>
</g>
</svg>
