<?xml version="1.0" encoding="UTF-8"?>
<svg id="Capa_1" xmlns="http://www.w3.org/2000/svg" xmlns:xlink="http://www.w3.org/1999/xlink" version="1.1" viewBox="0 0 396.8 285">
  <!-- Generator: Adobe Illustrator 29.3.1, SVG Export Plug-In . SVG Version: 2.1.0 Build 151)  -->
  <path fill="#ffffff" d="M15.8,150.7h0l116.4,116.4c4.2,4.9,11.5,5.4,16.4,1.3,4.9-4.2,5.5-11.5,1.3-16.4-.4-.5-.8-.9-1.3-1.3l-96.5-96.6h317.7c6.4,0,11.6-5.2,11.6-11.6s-5.2-11.6-11.6-11.6H52.1l96.5-96.5c4.9-4.2,5.5-11.5,1.3-16.4s-11.5-5.5-16.4-1.3c-.5.4-.9.8-1.3,1.3L15.8,134.3c-4.5,4.5-4.5,11.9,0,16.4Z"/>
</svg>