<svg xmlns="http://www.w3.org/2000/svg" xmlns:xlink="http://www.w3.org/1999/xlink" width="31" height="32" viewBox="0 0 31 32">
  <defs>
    <clipPath id="clip-path">
      <rect id="Rechteck_196" data-name="Rechteck 196" width="31" height="32" transform="translate(0 0)" fill="none"/>
    </clipPath>
  </defs>
  <g id="Gruppe_23" data-name="Gruppe 23" transform="translate(0 0.519)">
    <g id="Gruppe_17" data-name="Gruppe 17" transform="translate(0 -0.519)" clip-path="url(#clip-path)">
      <path id="Pfad_112" data-name="Pfad 112" d="M210.819,26.1a.775.775,0,0,0,1.289,0c1.834-2.75,4.534-6.147,6.416-9.6a15.393,15.393,0,0,0,2.236-7.2,9.3,9.3,0,0,0-18.595,0,15.392,15.392,0,0,0,2.236,7.2c1.881,3.452,4.587,6.857,6.416,9.6m.645-24.551A7.757,7.757,0,0,1,219.211,9.3a13.943,13.943,0,0,1-2.048,6.461,97.455,97.455,0,0,1-5.7,8.538,97.436,97.436,0,0,1-5.7-8.538A13.943,13.943,0,0,1,203.716,9.3a7.757,7.757,0,0,1,7.748-7.748" transform="translate(-189.82 0.342)" fill="#34499a"/>
      <path id="Pfad_113" data-name="Pfad 113" d="M288.774,91.256a4.649,4.649,0,1,0-4.649-4.649,4.654,4.654,0,0,0,4.649,4.649m0-7.748a3.1,3.1,0,1,1-3.1,3.1,3.1,3.1,0,0,1,3.1-3.1" transform="translate(-267.13 -76.968)" fill="#34499a"/>
      <path id="Pfad_114" data-name="Pfad 114" d="M22.033,81.985l2.042,3.12,8.792-12.875.794-6.3-1.847-4.254-3.2-2.5-3.687-.908-3.46.665-4.311,2.568L15,65.139v3.778l1.645,4.333L20.5,79.659Z" transform="translate(-14.149 -54.628)" fill="#fff"/>
      <path id="Pfad_115" data-name="Pfad 115" d="M9.5,68.662a.851.851,0,0,0,1.416,0c2.014-3.02,4.979-6.75,7.046-10.544a16.9,16.9,0,0,0,2.456-7.909A10.21,10.21,0,1,0,0,50.21a16.9,16.9,0,0,0,2.456,7.909c2.065,3.791,5.037,7.53,7.046,10.544M10.21,41.7a8.518,8.518,0,0,1,8.508,8.508A15.311,15.311,0,0,1,16.469,57.3a107.012,107.012,0,0,1-6.26,9.375A107.016,107.016,0,0,1,3.95,57.3,15.311,15.311,0,0,1,1.7,50.21,8.518,8.518,0,0,1,10.21,41.7Z" transform="translate(0 -37.389)" fill="#34499a"/>
      <path id="Pfad_116" data-name="Pfad 116" d="M95.1,140.21a5.1,5.1,0,1,0-5.1-5.1,5.111,5.111,0,0,0,5.1,5.1m0-8.508a3.4,3.4,0,1,1-3.4,3.4,3.407,3.407,0,0,1,3.4-3.4" transform="translate(-84.895 -122.284)" fill="#34499a"/>
    </g>
  </g>
</svg>
