<svg xmlns="http://www.w3.org/2000/svg" width="29.99" height="29.991" viewBox="0 0 29.99 29.991">
  <g id="map_1_" data-name="map(1)" transform="translate(-0.004)">
    <g id="Gruppe_16" data-name="Gruppe 16" transform="translate(0.004 0)">
      <path id="Pfad_111" data-name="Pfad 111" d="M28.924,0a1.071,1.071,0,0,0-.479.113L20.328,4.172,11.15.093C11.135.086,11.117.085,11.1.079A1.071,1.071,0,0,0,10.975.04a1.112,1.112,0,0,0-.13-.027,1.594,1.594,0,0,0-.261,0,1.112,1.112,0,0,0-.13.027,1.071,1.071,0,0,0-.126.039c-.016.006-.033.007-.048.014L.64,4.377A1.071,1.071,0,0,0,0,5.356V28.92A1.072,1.072,0,0,0,1.51,29.9l9.2-4.092,9.2,4.092c.016.006.033,0,.049.01a.946.946,0,0,0,.811-.018c.017-.007.036,0,.054-.012L29.4,25.594a1.071,1.071,0,0,0,.592-.959V1.072A1.071,1.071,0,0,0,28.924,0ZM9.644,23.939l-7.5,3.332V6.052l7.5-3.332Zm9.64,3.332-7.5-3.332V2.72l7.5,3.332Zm8.569-3.3-6.426,3.213V6.018L27.852,2.8Z" transform="translate(-0.004 0)" fill="#fff"/>
    </g>
  </g>
</svg>
