<svg xmlns="http://www.w3.org/2000/svg" width="30" height="30" viewBox="0 0 30 30">
  <g id="qr" transform="translate(-49 -1)">
    <path id="Pfad_108" data-name="Pfad 108" d="M70,31h6a3,3,0,0,0,3-3V22a1,1,0,0,0-2,0v6a1,1,0,0,1-1,1H70a1,1,0,0,0,0,2ZM58,29H52a1,1,0,0,1-1-1V22a1,1,0,0,0-2,0v6a3,3,0,0,0,3,3h6a1,1,0,0,0,0-2Zm5-9v6a1,1,0,0,0,2,0V20a1,1,0,0,0-2,0Zm-2,0a1,1,0,0,0-1-1H54a1,1,0,0,0-1,1v6a1,1,0,0,0,1,1h6a1,1,0,0,0,1-1Zm14,0a1,1,0,0,0-1-1H68a1,1,0,0,0-1,1v6a1,1,0,0,0,1,1h6a1,1,0,0,0,1-1ZM59,21v4H55V21Zm14,0v4H69V21ZM63,17h1a1,1,0,0,0,0-2H63a1,1,0,0,0,0,2Zm-9,0h5a1,1,0,0,0,0-2H54a1,1,0,0,0,0,2Zm18-2h1v1a1,1,0,0,0,2,0V14a1,1,0,0,0-1-1H72a1,1,0,0,0,0,2Zm-3,1V11h1a1,1,0,0,0,0-2H68a1,1,0,0,0-1,1v6a1,1,0,0,0,2,0Zm-6-6v2a1,1,0,0,0,2,0V10a1,1,0,0,0-2,0ZM61,6a1,1,0,0,0-1-1H54a1,1,0,0,0-1,1v6a1,1,0,0,0,1,1h6a1,1,0,0,0,1-1ZM58,1H52a3,3,0,0,0-3,3v6a1,1,0,0,0,2,0V4a1,1,0,0,1,1-1h6a1,1,0,0,0,0-2Zm1,6v4H55V7ZM70,3h6a1,1,0,0,1,1,1v6a1,1,0,0,0,2,0V4a3,3,0,0,0-3-3H70a1,1,0,0,0,0,2ZM64,7h9v3a1,1,0,0,0,2,0V6a1,1,0,0,0-1-1H64a1,1,0,0,0,0,2Z" fill="#fff" fill-rule="evenodd"/>
  </g>
</svg>
