<?xml version="1.0" encoding="UTF-8"?>
<svg id="Layer_1" data-name="Layer 1" xmlns="http://www.w3.org/2000/svg" viewBox="0 0 267 375">
  <path fill="#ffffff" d="M107.36,262.04c.3-17.75,2.71-32.04,7.23-42.87,4.52-10.83,14.23-23.58,29.14-38.25,14.91-14.67,24.51-25.05,28.8-31.14,4.29-6.09,7.6-12.78,9.94-20.08,2.33-7.3,3.5-15.61,3.5-24.94,0-18.8-5.01-33.58-15.02-44.34-10.02-10.76-23.98-16.14-41.9-16.14s-32.64,5.16-43.71,15.47c-11.07,10.32-16.75,24.28-17.05,41.9h-26.88c.3-24.7,8.66-44.46,25.07-59.3,16.41-14.83,37.27-22.25,62.57-22.25s46.34,7.56,61.33,22.68c14.98,15.12,22.48,35.62,22.48,61.5,0,16.25-3.69,31.48-11.07,45.7-7.38,14.22-21.39,30.81-42.02,49.76-17.02,14.29-25.53,35.06-25.53,62.29h-26.88ZM103.75,337.61c0-5.15,1.62-9.51,4.86-13.07,3.24-3.56,7.79-5.34,13.67-5.34s10.28,1.78,13.67,5.34c3.39,3.56,5.08,7.92,5.08,13.07s-1.69,9.21-5.08,12.61c-3.39,3.41-7.95,5.11-13.67,5.11s-10.43-1.7-13.67-5.11c-3.24-3.41-4.86-7.61-4.86-12.61Z"/>
</svg>