<svg xmlns="http://www.w3.org/2000/svg" width="18.174" height="29.199" viewBox="0 0 18.174 29.199">
  <g id="question_1_" data-name="question(1)" transform="translate(-536.949 -256)">
    <path id="Pfad_7" data-name="Pfad 7" d="M545.117,278.129a1.057,1.057,0,0,1-1.058-1.058,9.884,9.884,0,0,1,.587-3.583,8.158,8.158,0,0,1,1.391-2.292,26.293,26.293,0,0,1,2.535-2.457,12.036,12.036,0,0,0,2.38-2.575,4.137,4.137,0,0,0,.547-2.1,4.887,4.887,0,0,0-1.605-3.613,5.436,5.436,0,0,0-3.936-1.556,5.293,5.293,0,0,0-3.76,1.411,6.3,6.3,0,0,0-1.65,2.908,1.836,1.836,0,0,1-3.524-1.034,8.446,8.446,0,0,1,2.482-4.046A9.288,9.288,0,0,1,545.9,256a9.569,9.569,0,0,1,6.717,2.292,7.237,7.237,0,0,1,2.506,5.542,7.017,7.017,0,0,1-.881,3.465,16.435,16.435,0,0,1-3.446,3.858,17.6,17.6,0,0,0-2.253,2.253,4.988,4.988,0,0,0-.783,1.664,10.5,10.5,0,0,0-.259,2.045,1.066,1.066,0,0,1-1.064,1.009h-1.321Zm-1.254,5.063a2.007,2.007,0,1,1,2.007,2.007A2.007,2.007,0,0,1,543.863,283.192Z" fill="#fff"/>
  </g>
</svg>
