<svg xmlns="http://www.w3.org/2000/svg" width="22.379" height="31.828" viewBox="0 0 22.379 31.828">
  <g id="Gruppe_74" data-name="Gruppe 74" transform="translate(-149 -871.898)">
    <path id="Pfad_117" data-name="Pfad 117" d="M10.414,71.413a.932.932,0,0,0,1.552,0c2.207-3.31,5.457-7.4,7.722-11.556,1.811-3.324,2.691-6.159,2.691-8.668A11.189,11.189,0,1,0,0,51.189c0,2.508.88,5.343,2.691,8.668,2.263,4.154,5.52,8.252,7.722,11.556m.776-29.548a9.335,9.335,0,0,1,9.325,9.325c0,2.188-.806,4.732-2.464,7.775a117.282,117.282,0,0,1-6.86,10.275,117.285,117.285,0,0,1-6.86-10.275c-1.658-3.044-2.464-5.587-2.464-7.775A9.335,9.335,0,0,1,11.189,41.865Z" transform="translate(149 831.898)" fill="#fff"/>
    <path id="Pfad_118" data-name="Pfad 118" d="M95.595,141.189A5.595,5.595,0,1,0,90,135.595a5.6,5.6,0,0,0,5.595,5.595m0-9.325a3.73,3.73,0,1,1-3.73,3.73,3.734,3.734,0,0,1,3.73-3.73" transform="translate(64.595 747.493)" fill="#fff"/>
  </g>
</svg>
